<svg width="240" height="240" fill="none" xmlns="http://www.w3.org/2000/svg"><path d="M120 240c66.274 0 120-53.726 120-120S186.274 0 120 0 0 53.726 0 120s53.726 120 120 120z" fill="#170F2D"/><path d="M215.379 41.657v26.071c0 2.267-1.323 4.534-3.212 5.668L192.141 84.92c-1.133.756-2.645 1.134-3.967 1.134-1.323 0-2.645-.378-3.967-1.134l-20.026-11.524c-2.078-1.134-3.212-3.212-3.212-5.668V41.657c0-1.134.378-2.267.945-3.212.566-.944 1.322-1.89 2.456-2.456l20.592-11.902c1.889-1.134 4.345-1.134 6.424-.189 0 0 .188 0 .188.189l20.782 11.902s.189 0 .189.19h.189c.944.566 1.511 1.322 2.078 2.266.189.945.567 2.078.567 3.212z" fill="#8652F4"/><path d="M215.379 41.657v26.071c0 2.267-1.323 4.534-3.212 5.668L192.141 84.92c-1.133.756-2.645 1.134-3.967 1.134V53.559l26.26-15.114c.567.945.945 2.078.945 3.212z" fill="#6D3BD7"/><path d="M188.174 53.559v32.495c-1.323 0-2.645-.378-3.968-1.134L164.18 73.396c-2.078-1.134-3.211-3.212-3.211-5.668V41.657c0-1.134.378-2.267.944-3.212l26.261 15.114z" fill="#9665FF"/><path d="M214.434 38.445l-26.26 15.114-26.449-15.303c.566-.944 1.322-1.889 2.456-2.456l20.592-11.902c1.889-1.133 4.345-1.133 6.424-.189l21.159 12.28h.189c.756.756 1.511 1.512 1.889 2.456z" fill="#8652F4"/><path d="M178.072 61.974l-.189-1.323c0-2.078-1.511-4.723-3.4-5.857-1.889-.944-3.212-.188-3.212 1.89v1.322l-.189-.189c-.755-.377-1.322 0-1.322.756v5.1c0 1.323.944 3.024 2.267 3.78l5.479 3.022c1.133.756 2.267.19 2.267-1.322v-5.101c-.378-.567-.945-1.512-1.701-2.078zm-2.833 3.778c0 .378-.189.567-.378.567 0 0-.189 0-.378-.19-.378-.188-.756-.755-.756-1.322v-1.7c0-.378.378-.567.756-.378.378.19.756.756.756 1.134v1.89zm1.322-4.534l-3.778-2.267v-1.323c0-1.133.944-1.511 2.078-.944 1.133.756 1.889 2.078 1.889 3.4v1.134h-.189z" fill="#fff"/><path d="M215.379 175.603v26.071c0 2.268-1.323 4.535-3.212 5.668l-20.026 11.524c-1.133.756-2.645 1.134-3.967 1.134-1.323 0-2.645-.378-3.967-1.134l-20.026-11.524c-2.078-1.133-3.212-3.212-3.212-5.668v-26.071c0-1.133.378-2.267.945-3.212.566-.944 1.322-1.889 2.456-2.456l20.592-11.902c1.889-1.133 4.345-1.133 6.424-.189 0 0 .188 0 .188.189l20.782 11.902s.189 0 .189.189h.189c.944.567 1.511 1.323 2.078 2.267.189.945.567 1.89.567 3.212z" fill="#8652F4"/><path d="M215.379 175.603v26.071c0 2.267-1.323 4.535-3.212 5.668l-20.026 11.524c-1.133.756-2.645 1.134-3.967 1.134v-32.495l26.26-15.114c.567.945.945 1.89.945 3.212z" fill="#6D3BD7"/><path d="M188.174 187.505V220c-1.323 0-2.645-.378-3.968-1.134l-20.026-11.524c-2.078-1.133-3.211-3.212-3.211-5.668v-26.071c0-1.133.378-2.267.944-3.212l26.261 15.114z" fill="#9665FF"/><path d="M214.434 172.203l-26.26 15.113-26.449-15.302c.566-.945 1.322-1.89 2.456-2.456l20.592-11.903c1.889-1.133 4.345-1.133 6.424-.188l21.159 12.28h.189c.756.944 1.511 1.7 1.889 2.456z" fill="#8652F4"/><path d="M178.072 195.92l-.189-1.323c0-2.078-1.511-4.723-3.4-5.856-1.889-.945-3.212-.189-3.212 1.889v1.322l-.189-.188c-.755-.378-1.322 0-1.322.755v5.101c0 1.323.944 3.023 2.267 3.779l5.479 3.022c1.133.756 2.267.189 2.267-1.322v-5.101c-.378-.567-.945-1.7-1.701-2.078zm-2.833 3.778c0 .378-.189.567-.378.567 0 0-.189 0-.378-.189-.378-.189-.756-.756-.756-1.322v-1.701c0-.377.378-.566.756-.377.378.188.756.755.756 1.133v1.889zm1.322-4.723l-3.778-2.267v-1.322c0-1.134.944-1.512 2.078-.945 1.133.756 1.889 2.078 1.889 3.401v1.133h-.189z" fill="#fff"/><path d="M78.599 175.603v26.071c0 2.268-1.323 4.535-3.212 5.668L55.36 218.866c-1.133.756-2.645 1.134-3.967 1.134-1.323 0-2.645-.378-3.968-1.134L27.4 207.342c-2.078-1.133-3.211-3.212-3.211-5.668v-26.071c0-1.133.378-2.267.945-3.212.566-.944 1.322-1.889 2.456-2.456l20.592-11.902c1.89-1.133 4.345-1.133 6.423-.189 0 0 .19 0 .19.189l20.78 11.902s.19 0 .19.189h.189c.944.567 1.511 1.323 2.078 2.267.189.945.567 1.89.567 3.212z" fill="#8652F4"/><path d="M78.599 175.603v26.071c0 2.267-1.323 4.535-3.212 5.668l-20.026 11.524c-1.133.756-2.645 1.134-3.967 1.134v-32.495l26.26-15.114c.567.945.945 1.89.945 3.212z" fill="#6D3BD7"/><path d="M51.394 187.505V220c-1.323 0-2.645-.378-3.968-1.134L27.4 207.342c-2.078-1.133-3.211-3.212-3.211-5.668v-26.071c0-1.133.378-2.267.945-3.212l26.26 15.114z" fill="#9665FF"/><path d="M77.654 172.203l-26.26 15.113-26.45-15.302c.567-.945 1.323-1.89 2.457-2.456l20.592-11.903c1.89-1.133 4.345-1.133 6.423-.188l21.16 12.28h.189c.755.944 1.511 1.7 1.889 2.456z" fill="#8652F4"/><path d="M41.292 195.92l-.189-1.323c0-2.078-1.511-4.723-3.4-5.856-1.89-.945-3.212-.189-3.212 1.889v1.322h-.189c-.756-.377-1.322 0-1.322.756v5.101c0 1.323.944 3.023 2.267 3.779l5.478 3.022c1.134.756 2.267.189 2.267-1.322v-5.101c-.377-.756-.944-1.889-1.7-2.267zm-2.834 3.778c0 .378-.189.567-.377.567 0 0-.19 0-.378-.189-.378-.189-.756-.756-.756-1.322v-1.701c0-.377.378-.566.756-.377.377.188.755.755.755 1.133v1.889zm1.134-4.723l-3.779-2.267v-1.322c0-1.134.945-1.512 2.079-.945 1.133.756 1.889 2.078 1.889 3.401v1.133h-.19z" fill="#fff"/><path d="M78.599 38.823v26.071c0 2.267-1.323 4.534-3.212 5.668L55.36 82.086c-1.133.756-2.645 1.134-3.967 1.134-1.323 0-2.645-.378-3.968-1.134L27.4 70.562c-2.078-1.133-3.211-3.212-3.211-5.668V38.823c0-1.133.378-2.267.945-3.212.566-.944 1.322-1.889 2.456-2.456l20.592-11.902c1.89-1.133 4.345-1.133 6.423-.189 0 0 .19 0 .19.19l20.78 11.901s.19 0 .19.19h.189c.944.566 1.511 1.322 2.078 2.266.189.756.567 1.89.567 3.212z" fill="#8652F4"/><path d="M78.599 38.823v26.071c0 2.267-1.323 4.534-3.212 5.668L55.36 82.086c-1.133.756-2.645 1.134-3.967 1.134V50.725l26.26-15.114c.567.756.945 1.89.945 3.212z" fill="#6D3BD7"/><path d="M51.394 50.536v32.495c-1.323 0-2.645-.378-3.968-1.134L27.4 70.373c-2.078-1.133-3.211-3.212-3.211-5.668v-26.07c0-1.134.378-2.268.945-3.213l26.26 15.114z" fill="#9665FF"/><path d="M77.654 35.422l-26.26 15.114-26.45-15.303c.567-.944 1.323-1.889 2.457-2.455l20.592-11.903c1.89-1.133 4.345-1.133 6.423-.189l21.16 12.28h.189c.755.945 1.511 1.7 1.889 2.456z" fill="#8652F4"/><path d="M41.292 59.14l-.189-1.323c0-2.078-1.511-4.723-3.4-5.857-1.89-.944-3.212-.189-3.212 1.89v1.322h-.19c-.755-.378-1.322 0-1.322.756v5.1c0 1.323.945 3.023 2.268 3.779l5.478 3.023c1.134.755 2.267.189 2.267-1.323v-5.1c-.377-.756-.944-1.89-1.7-2.268zm-2.834 3.778c0 .378-.189.566-.378.566 0 0-.188 0-.377-.188-.378-.19-.756-.756-.756-1.323v-1.7c0-.378.378-.567.756-.378.377.189.755.756.755 1.133v1.89zm1.134-4.723l-3.779-2.267v-1.323c0-1.133.945-1.511 2.078-.944 1.134.755 1.89 2.078 1.89 3.4v1.134h-.19z" fill="#fff"/><path d="M146.988 107.213v26.072c0 2.267-1.322 4.534-3.211 5.667l-20.026 11.525c-1.134.755-2.645 1.133-3.967 1.133-1.323 0-2.645-.378-3.968-1.133L95.79 138.764c-2.078-1.134-3.211-3.212-3.211-5.668v-26.072c0-1.133.378-2.267.944-3.211.567-.945 1.323-1.889 2.456-2.456l20.593-11.902c1.889-1.134 4.345-1.134 6.423-.19 0 0 .189 0 .189.19l20.782 11.902s.189 0 .189.189h.189c.944.566 1.511 1.322 2.078 2.267.189.944.566 2.078.566 3.4z" fill="#8652F4"/><path d="M146.988 107.213v26.072c0 2.267-1.322 4.534-3.211 5.667l-20.026 11.525c-1.134.755-2.645 1.133-3.967 1.133v-32.495l26.26-15.113c.567.755.944 1.889.944 3.211z" fill="#6D3BD7"/><path d="M119.784 119.115v32.495c-1.323 0-2.645-.378-3.968-1.133L95.79 138.763c-2.078-1.133-3.211-3.211-3.211-5.667v-26.072c0-1.133.378-2.267.944-3.211l26.261 15.302z" fill="#9665FF"/><path d="M146.044 103.813l-26.26 15.114-26.45-15.303c.567-.945 1.323-1.889 2.456-2.456l20.593-11.902c1.889-1.134 4.345-1.134 6.423-.19l21.16 12.281h.189c.755.944 1.511 1.7 1.889 2.456z" fill="#8652F4"/><path d="M109.682 127.53l-.189-1.323c0-2.078-1.511-4.723-3.401-5.856-1.889-.945-3.211-.189-3.211 1.889v1.322l-.189-.189c-.756-.378-1.323 0-1.323.756v5.101c0 1.322.945 3.023 2.267 3.778l5.479 3.023c1.134.756 2.267.189 2.267-1.322v-5.101c-.378-.567-.944-1.701-1.7-2.078zm-2.834 3.778c0 .378-.189.567-.378.567 0 0-.189 0-.378-.189-.377-.189-.755-.756-.755-1.323v-1.7c0-.378.378-.567.755-.378.378.189.756.756.756 1.134v1.889zm1.323-4.723l-3.779-2.267v-1.323c0-1.133.945-1.511 2.078-.944 1.134.756 1.89 2.078 1.89 3.4v1.134h-.189z" fill="#fff"/><path d="M139.243 50.158H99.947c-1.323 0-2.456-1.133-2.456-2.456 0-1.322 1.133-2.456 2.456-2.456h39.296c1.322 0 2.456 1.134 2.456 2.456 0 1.323-1.134 2.456-2.456 2.456zm0 142.448H99.947c-1.323 0-2.456-1.133-2.456-2.456 0-1.322 1.133-2.456 2.456-2.456h39.296c1.322 0 2.456 1.134 2.456 2.456 0 1.323-1.134 2.456-2.456 2.456zm51.387-51.575c-1.323 0-2.456-1.134-2.456-2.456V99.279c0-1.323 1.133-2.456 2.456-2.456 1.322 0 2.456 1.133 2.456 2.456v39.296c0 1.322-1.134 2.456-2.456 2.456zm-142.26 0c-1.322 0-2.455-1.134-2.455-2.456V99.279c0-1.323 1.133-2.456 2.456-2.456 1.322 0 2.456 1.133 2.456 2.456v39.296c0 1.322-1.134 2.456-2.456 2.456zm40.997-46.476c-.567 0-1.133-.189-1.7-.755L76.898 83.22a2.394 2.394 0 010-3.4 2.395 2.395 0 013.4 0l10.77 10.768a2.395 2.395 0 010 3.4c-.567.379-1.134.567-1.7.567zm69.335 69.335c-.567 0-1.134-.189-1.701-.755l-10.768-10.769a2.394 2.394 0 010-3.401 2.395 2.395 0 013.4 0l10.769 10.769a2.394 2.394 0 010 3.401c-.567.566-1.134.755-1.7.755zm-80.103 0c-.567 0-1.134-.189-1.7-.755a2.395 2.395 0 010-3.401l10.768-10.769a2.396 2.396 0 013.4 0 2.395 2.395 0 010 3.401L80.3 163.135c-.567.566-1.134.755-1.7.755zm69.334-69.334c-.567 0-1.133-.19-1.7-.756a2.394 2.394 0 010-3.4l10.768-10.77a2.395 2.395 0 013.401 0 2.394 2.394 0 010 3.401L149.633 93.8c-.566.567-1.133.756-1.7.756z" fill="#6D3BD7"/></svg>