<svg width="250" height="273" fill="none" xmlns="http://www.w3.org/2000/svg"><path d="M130 273c66.274 0 120-53.726 120-120S196.274 33 130 33 10 86.726 10 153s53.726 120 120 120z" fill="#170F2D"/><path d="M90.548 90.892a7.86 7.86 0 01-.782 2.476c-.13.13-.13.39-.26.52-.26.652-.652 1.173-1.043 1.694-.13.26-.26.39-.52.651-1.043 1.172-2.215 2.084-3.518 2.736l-.782.39c-.391.13-.912.391-1.303.391-1.694.521-3.648.651-5.472.261-6.254-1.303-10.293-7.425-8.99-13.678 1.303-6.252 7.426-10.29 13.68-8.988a12.852 12.852 0 015.863 3.126c2.736 2.606 3.909 6.513 3.127 10.421z" fill="url(#paint0_linear_353_1931)"/><path fill-rule="evenodd" clip-rule="evenodd" d="M74.492 84.205h2.338l2.91 3.741h-2.286l-2.962-3.741zm7.119 0h2.338l-2.65 3.741-1.143-1.61 1.455-2.131zm-7.119 8.833h2.338l2.91-3.74h-2.286l-2.962 3.74zm7.119 0h2.338l-2.65-3.74-1.143 1.61 1.455 2.13z" fill="#fff"/><path d="M79.213 98.318c-.651 0-1.303-.13-1.954-.26-5.212-1.043-8.73-6.253-7.557-11.594.521-2.605 2.085-4.689 4.17-6.122 2.214-1.433 4.82-1.954 7.295-1.433 1.824.391 3.518 1.303 4.951 2.605 2.345 2.345 3.388 5.601 2.606 8.858-.13.781-.391 1.433-.652 2.084 0 .13-.13.26-.13.39-.26.522-.52.913-.912 1.434-.13.13-.26.39-.39.52-.782.913-1.825 1.695-2.997 2.346-.26.13-.391.26-.652.26l-1.172.391c-.782.39-1.694.521-2.606.521zm0-18.757c-1.694 0-3.388.52-4.82 1.432-1.955 1.303-3.388 3.257-3.78 5.602-1.041 4.82 2.086 9.509 6.906 10.55 1.433.261 2.867.261 4.3-.13.26-.13.651-.13 1.042-.39.13-.13.39-.13.521-.26 1.042-.522 1.954-1.304 2.736-2.085l.391-.39c.39-.391.652-.913.782-1.303 0-.13.13-.261.13-.392.26-.65.521-1.302.651-1.953.652-2.996-.26-5.992-2.475-8.076-1.172-1.173-2.736-2.084-4.43-2.475-.651 0-1.302-.13-1.954-.13z" fill="#9665FF"/><path d="M192.736 90.892a7.85 7.85 0 01-.782 2.476c-.13.13-.13.39-.26.52-.261.652-.652 1.173-1.043 1.694-.13.26-.26.39-.521.651-1.042 1.172-2.214 2.084-3.517 2.736l-.782.39c-.391.13-.912.391-1.303.391-1.694.521-3.648.651-5.472.261-6.254-1.303-10.293-7.425-8.99-13.678 1.303-6.252 7.426-10.29 13.68-8.988 2.215.521 4.169 1.563 5.863 3.126 2.736 2.606 3.909 6.513 3.127 10.421z" fill="url(#paint1_linear_353_1931)"/><path fill-rule="evenodd" clip-rule="evenodd" d="M176.68 84.205h2.338l2.91 3.741h-2.286l-2.962-3.741zm7.119 0h2.338l-2.65 3.741-1.143-1.61 1.455-2.131zm-7.119 8.833h2.338l2.91-3.74h-2.286l-2.962 3.74zm7.119 0h2.338l-2.65-3.74-1.143 1.61 1.455 2.13z" fill="#fff"/><path d="M181.401 98.318c-.651 0-1.303-.13-1.954-.26-5.212-1.043-8.73-6.253-7.557-11.594.521-2.605 2.085-4.689 4.169-6.122 2.215-1.433 4.821-1.954 7.296-1.433 1.824.391 3.518 1.303 4.951 2.605 2.345 2.345 3.388 5.601 2.606 8.858-.13.781-.391 1.433-.652 2.084 0 .13-.13.26-.13.39-.26.522-.521.913-.912 1.434-.13.13-.26.39-.391.52-.781.913-1.824 1.695-2.996 2.346-.261.13-.391.26-.652.26l-1.172.391c-.782.39-1.694.521-2.606.521zm0-18.757c-1.694 0-3.388.52-4.821 1.432-1.954 1.303-3.387 3.257-3.778 5.602-1.042 4.82 2.085 9.509 6.905 10.55 1.433.261 2.867.261 4.3-.13.26-.13.651-.13 1.042-.39.13-.13.391-.13.521-.26 1.043-.522 1.954-1.304 2.736-2.085l.391-.39c.391-.391.652-.913.782-1.303 0-.13.13-.261.13-.392.261-.65.521-1.302.651-1.953.652-2.996-.26-5.992-2.475-8.076-1.172-1.173-2.736-2.084-4.43-2.475-.651 0-1.302-.13-1.954-.13z" fill="#9665FF"/><path d="M159.317 111.265a13.428 13.428 0 01-1.335 4.229c-.223.223-.223.668-.445.89-.446 1.113-1.113 2.003-1.781 2.893-.223.445-.445.667-.89 1.112-1.781 2.003-3.784 3.561-6.01 4.674l-1.335.667c-.668.222-1.558.668-2.226.668-2.894.89-6.232 1.112-9.348.444-10.684-2.225-17.584-12.684-15.358-23.365 2.225-10.681 12.686-17.58 23.37-15.354 3.784.89 7.123 2.67 10.016 5.34 4.674 4.45 6.678 11.127 5.342 17.802z" fill="url(#paint2_linear_353_1931)"/><path fill-rule="evenodd" clip-rule="evenodd" d="M131.888 99.841h3.995l4.97 6.392h-3.905l-5.06-6.392zm12.161 0h3.994l-4.527 6.392-1.952-2.752 2.485-3.64zm-12.161 15.091h3.995l4.97-6.392h-3.905l-5.06 6.392zm12.161 0h3.995l-4.528-6.392-1.952 2.752 2.485 3.64z" fill="#fff"/><path d="M139.953 123.951c-1.113 0-2.226-.223-3.339-.445-8.903-1.781-14.912-10.682-12.909-19.805.89-4.45 3.561-8.01 7.122-10.458 3.784-2.448 8.236-3.339 12.465-2.448 3.116.667 6.009 2.225 8.457 4.45 4.007 4.006 5.787 9.568 4.452 15.132-.223 1.335-.668 2.448-1.113 3.56 0 .223-.222.445-.222.667-.446.891-.891 1.558-1.558 2.448-.223.223-.446.668-.668.89-1.336 1.558-3.116 2.894-5.12 4.007-.445.222-.667.444-1.112.444l-2.003.668c-1.336.668-2.894.89-4.452.89zm0-32.044c-2.893 0-5.787.89-8.236 2.448-3.338 2.225-5.786 5.563-6.454 9.568-1.781 8.234 3.561 16.245 11.796 18.026 2.449.445 4.897.444 7.346-.223.445-.223 1.112-.222 1.78-.667.222-.223.668-.223.89-.446 1.781-.89 3.339-2.225 4.674-3.561l.668-.667c.668-.667 1.113-1.557 1.336-2.225 0-.223.222-.446.222-.668.445-1.113.89-2.226 1.113-3.338 1.113-5.118-.445-10.236-4.229-13.796-2.003-2.003-4.674-3.56-7.567-4.228-1.113 0-2.226-.223-3.339-.223z" fill="#9665FF"/><path d="M97.296 109.209a7.854 7.854 0 01-.781 2.475c-.13.131-.13.391-.26.521-.261.652-.652 1.172-1.043 1.693-.13.261-.26.391-.521.652-1.043 1.172-2.215 2.084-3.518 2.735l-.782.391c-.39.13-.912.391-1.303.391-1.694.521-3.648.651-5.472.26-6.254-1.302-10.293-7.425-8.99-13.677 1.303-6.253 7.426-10.29 13.68-8.988a12.853 12.853 0 015.863 3.126c2.736 2.605 3.91 6.513 3.127 10.421z" fill="url(#paint3_linear_353_1931)"/><path fill-rule="evenodd" clip-rule="evenodd" d="M81.24 102.522h2.339l2.91 3.741h-2.287l-2.962-3.741zm7.119 0h2.338l-2.65 3.741-1.143-1.611 1.455-2.13zm-7.119 8.833h2.339l2.91-3.741h-2.287l-2.962 3.741zm7.119 0h2.338l-2.65-3.741-1.143 1.611 1.455 2.13z" fill="#fff"/><path d="M85.961 116.635c-.651 0-1.302-.131-1.954-.261-5.212-1.042-8.73-6.253-7.557-11.593.521-2.605 2.085-4.689 4.17-6.122 2.214-1.433 4.82-1.954 7.296-1.433 1.824.39 3.517 1.302 4.95 2.605 2.346 2.345 3.388 5.601 2.606 8.858-.13.781-.39 1.433-.651 2.084 0 .13-.13.26-.13.39-.261.521-.522.912-.912 1.433-.13.131-.261.391-.391.521-.782.912-1.824 1.694-2.997 2.345-.26.131-.39.261-.651.261l-1.173.391c-.782.391-1.694.521-2.606.521zm0-18.758c-1.693 0-3.387.521-4.82 1.433-1.955 1.303-3.388 3.256-3.779 5.601-1.042 4.82 2.085 9.509 6.906 10.551 1.433.261 2.866.261 4.3-.13.26-.13.65-.13 1.041-.39.13-.131.391-.131.522-.261 1.042-.521 1.954-1.303 2.735-2.085l.391-.39c.391-.391.652-.912.782-1.303 0-.13.13-.261.13-.391.26-.651.521-1.302.652-1.954.651-2.996-.26-5.991-2.476-8.076-1.172-1.172-2.736-2.084-4.43-2.474-.65 0-1.302-.13-1.954-.13z" fill="#9665FF"/><path d="M190.66 110.691a13.11 13.11 0 01-1.303 4.126c-.217.217-.217.651-.434.868-.435 1.085-1.086 1.953-1.738 2.822-.217.434-.434.651-.868 1.085-1.737 1.954-3.691 3.474-5.863 4.56l-1.303.65c-.651.218-1.52.652-2.171.652-2.823.869-6.08 1.085-9.121.434-10.423-2.171-17.155-12.375-14.983-22.796 2.171-10.42 12.377-17.15 22.8-14.98 3.692.869 6.949 2.606 9.772 5.21 4.56 4.343 6.515 10.856 5.212 17.369z" fill="url(#paint4_linear_353_1931)"/><path fill-rule="evenodd" clip-rule="evenodd" d="M163.9 99.545h3.897l4.849 6.236h-3.81l-4.936-6.236zm11.864 0h3.897l-4.416 6.236-1.906-2.685 2.425-3.55zM163.9 114.268h3.897l4.849-6.236h-3.81l-4.936 6.236zm11.864 0h3.897l-4.416-6.236-1.906 2.685 2.425 3.551z" fill="#fff"/><path d="M171.768 123.067c-1.086 0-2.171-.218-3.257-.435-8.686-1.736-14.549-10.42-12.595-19.321.869-4.343 3.475-7.815 6.949-10.204 3.691-2.388 8.035-3.256 12.16-2.388 3.04.651 5.863 2.171 8.252 4.342 3.908 3.908 5.645 9.335 4.342 14.763-.217 1.302-.651 2.388-1.085 3.473 0 .218-.217.434-.217.651-.434.869-.869 1.52-1.52 2.389-.217.217-.434.651-.652.868-1.302 1.52-3.04 2.823-4.994 3.908-.434.217-.652.434-1.086.434l-1.954.652c-1.303.651-2.823.868-4.343.868zm0-31.262c-2.823 0-5.646.868-8.035 2.388-3.257 2.171-5.645 5.427-6.297 9.335-1.737 8.033 3.475 15.849 11.509 17.585 2.389.435 4.777.434 7.166-.217.434-.217 1.085-.217 1.737-.651.217-.217.652-.217.869-.435 1.737-.868 3.257-2.171 4.56-3.473l.651-.651c.652-.652 1.086-1.52 1.303-2.171 0-.217.217-.435.217-.652.434-1.086.869-2.171 1.086-3.257 1.085-4.993-.434-9.986-4.126-13.46-1.954-1.953-4.56-3.473-7.383-4.124-1.085 0-2.171-.217-3.257-.217z" fill="#9665FF"/><path d="M129.432 111.265a13.43 13.43 0 01-1.336 4.229c-.222.223-.222.668-.445.89-.445 1.113-1.113 2.003-1.78 2.893-.223.445-.445.667-.89 1.112-1.781 2.003-3.784 3.561-6.01 4.674l-1.336.667c-.667.222-1.558.668-2.225.668-2.894.89-6.232 1.112-9.348.444-10.684-2.225-17.584-12.684-15.358-23.365 2.225-10.681 12.686-17.58 23.37-15.354 3.784.89 7.122 2.67 10.016 5.34 4.674 4.45 6.678 11.127 5.342 17.802z" fill="url(#paint5_linear_353_1931)"/><path fill-rule="evenodd" clip-rule="evenodd" d="M102.003 99.841h3.994l4.971 6.392h-3.905l-5.06-6.392zm12.161 0h3.994l-4.527 6.392-1.953-2.752 2.486-3.64zm-12.161 15.091h3.994l4.971-6.392h-3.905l-5.06 6.392zm12.161 0h3.994l-4.527-6.392-1.953 2.752 2.486 3.64z" fill="#fff"/><path d="M110.068 123.951c-1.113 0-2.226-.223-3.339-.445-8.903-1.781-14.912-10.682-12.91-19.805.891-4.45 3.562-8.01 7.123-10.458 3.784-2.448 8.236-3.339 12.465-2.448 3.116.667 6.009 2.225 8.457 4.45 4.006 4.006 5.787 9.568 4.452 15.132-.223 1.335-.668 2.448-1.113 3.56 0 .223-.222.445-.222.667-.446.891-.891 1.558-1.558 2.448-.223.223-.446.668-.668.89-1.336 1.558-3.116 2.894-5.12 4.007-.445.222-.667.444-1.112.444l-2.003.668c-1.336.668-2.894.89-4.452.89zm0-32.044c-2.893 0-5.787.89-8.236 2.448-3.338 2.225-5.786 5.563-6.454 9.568-1.78 8.234 3.561 16.245 11.796 18.026 2.449.445 4.897.444 7.346-.223.445-.223 1.112-.222 1.78-.667.222-.223.668-.223.89-.446 1.781-.89 3.339-2.225 4.674-3.561l.668-.667c.668-.667 1.113-1.557 1.336-2.225 0-.223.222-.446.222-.668.445-1.113.89-2.226 1.113-3.338 1.113-5.118-.445-10.236-4.229-13.796-2.003-2.003-4.674-3.56-7.567-4.228-1.113 0-2.226-.223-3.339-.223z" fill="#9665FF"/><path d="M78.887 110.135a11.131 11.131 0 01-1.108 3.507c-.184.185-.184.553-.369.738-.369.923-.922 1.66-1.476 2.399-.185.369-.37.553-.738.922-1.477 1.661-3.138 2.953-4.984 3.876l-1.107.553c-.554.185-1.293.554-1.846.554-2.4.738-5.168.922-7.752.369-8.86-1.846-14.582-10.519-12.736-19.377 1.846-8.857 10.52-14.578 19.38-12.733 3.138.739 5.907 2.215 8.306 4.43 3.876 3.69 5.538 9.226 4.43 14.762z" fill="url(#paint6_linear_353_1931)"/><path fill-rule="evenodd" clip-rule="evenodd" d="M56.14 100.661h3.313l4.123 5.3h-3.24l-4.195-5.3zm10.086 0h3.312l-3.754 5.3-1.62-2.281 2.062-3.019zM56.14 113.175h3.313l4.122-5.3h-3.24l-4.195 5.3zm10.085 0h3.312l-3.754-5.3-1.62 2.282 2.062 3.018z" fill="#fff"/><path d="M62.829 120.655c-.923 0-1.846-.185-2.769-.37-7.383-1.476-12.366-8.857-10.705-16.423.738-3.691 2.953-6.643 5.906-8.673 3.138-2.03 6.83-2.768 10.337-2.03 2.584.554 4.983 1.845 7.013 3.69 3.322 3.323 4.8 7.936 3.692 12.549-.185 1.107-.554 2.03-.923 2.953 0 .184-.184.368-.184.553-.37.738-.739 1.292-1.293 2.03-.184.185-.369.554-.553.738-1.108 1.292-2.584 2.4-4.246 3.322-.369.185-.553.369-.922.369l-1.662.554c-1.107.554-2.399.738-3.691.738zm0-26.573c-2.4 0-4.8.738-6.83 2.03-2.768 1.845-4.798 4.613-5.352 7.935-1.477 6.827 2.953 13.471 9.782 14.947 2.03.369 4.061.369 6.091-.184.37-.185.923-.185 1.477-.554.184-.184.554-.185.738-.369 1.477-.738 2.769-1.846 3.876-2.953l.554-.553c.554-.554.923-1.292 1.108-1.846 0-.184.184-.369.184-.554.369-.922.738-1.845.923-2.768.923-4.244-.37-8.488-3.507-11.44-1.661-1.661-3.876-2.953-6.275-3.506-.923 0-1.846-.185-2.769-.185z" fill="#9665FF"/><path d="M213.852 110.135a11.11 11.11 0 01-1.107 3.507c-.185.185-.185.553-.369.738-.369.923-.923 1.66-1.477 2.399-.185.369-.369.553-.738.922-1.477 1.661-3.138 2.953-4.984 3.876l-1.107.553c-.554.185-1.292.554-1.846.554-2.399.738-5.168.922-7.752.369-8.86-1.846-14.582-10.519-12.736-19.377 1.846-8.857 10.521-14.578 19.38-12.733 3.138.739 5.907 2.215 8.306 4.43 3.876 3.69 5.538 9.226 4.43 14.762z" fill="url(#paint7_linear_353_1931)"/><path fill-rule="evenodd" clip-rule="evenodd" d="M191.106 100.661h3.313l4.122 5.3h-3.239l-4.196-5.3zm10.085 0h3.313l-3.755 5.3-1.619-2.281 2.061-3.019zm-10.085 12.514h3.313l4.122-5.3h-3.239l-4.196 5.3zm10.085 0h3.313l-3.755-5.3-1.619 2.282 2.061 3.018z" fill="#fff"/><path d="M197.794 120.655c-.923 0-1.845-.185-2.768-.37-7.383-1.476-12.367-8.857-10.706-16.423.738-3.691 2.953-6.643 5.907-8.673 3.137-2.03 6.829-2.768 10.336-2.03 2.584.554 4.983 1.845 7.013 3.69 3.323 3.323 4.799 7.936 3.692 12.549-.185 1.107-.554 2.03-.923 2.953 0 .184-.184.368-.184.553-.369.738-.738 1.292-1.292 2.03-.185.185-.369.554-.554.738-1.107 1.292-2.584 2.4-4.245 3.322-.369.185-.554.369-.923.369l-1.661.554c-1.108.554-2.4.738-3.692.738zm0-26.573c-2.399 0-4.799.738-6.829 2.03-2.769 1.845-4.799 4.613-5.353 7.935-1.476 6.827 2.953 13.471 9.783 14.947 2.03.369 4.06.369 6.091-.184.369-.185.922-.185 1.476-.554.185-.184.554-.185.739-.369 1.476-.738 2.768-1.846 3.875-2.953l.554-.553c.554-.554.923-1.292 1.108-1.846 0-.184.184-.369.184-.554.369-.922.738-1.845.923-2.768.923-4.244-.369-8.488-3.507-11.44-1.661-1.661-3.876-2.953-6.275-3.506-.923 0-1.846-.185-2.769-.185z" fill="#9665FF"/><path d="M117.449 88.926a11.14 11.14 0 01-1.108 3.507c-.185.185-.185.554-.369.738-.369.923-.923 1.66-1.477 2.399-.184.369-.369.553-.738.923-1.477 1.66-3.138 2.952-4.983 3.875l-1.108.553c-.554.185-1.292.554-1.846.554-2.399.738-5.168.922-7.752.369-8.86-1.845-14.581-10.519-12.736-19.376 1.846-8.858 10.521-14.579 19.381-12.733 3.137.738 5.906 2.214 8.306 4.428 3.876 3.691 5.537 9.227 4.43 14.763z" fill="url(#paint8_linear_353_1931)"/><path fill-rule="evenodd" clip-rule="evenodd" d="M94.703 79.453h3.312l4.122 5.3h-3.239l-4.195-5.3zm10.084 0h3.313l-3.755 5.3-1.619-2.282 2.061-3.018zM94.702 91.967h3.313l4.122-5.3h-3.239l-4.195 5.3zm10.085 0h3.313l-3.754-5.3-1.62 2.281 2.061 3.019z" fill="#fff"/><path d="M101.391 99.446c-.923 0-1.846-.185-2.77-.37C91.24 97.6 86.256 90.22 87.917 82.654c.739-3.69 2.954-6.643 5.907-8.672 3.138-2.03 6.829-2.769 10.336-2.03 2.584.553 4.983 1.845 7.014 3.69 3.322 3.322 4.799 7.935 3.691 12.548-.184 1.107-.554 2.03-.923 2.953 0 .184-.184.369-.184.553-.369.738-.738 1.292-1.292 2.03-.185.185-.369.554-.554.738-1.107 1.292-2.584 2.4-4.245 3.323-.369.184-.554.368-.923.368l-1.661.554c-1.107.554-2.399.738-3.691.738zm0-26.573c-2.4 0-4.8.738-6.83 2.03-2.769 1.846-4.799 4.613-5.353 7.935-1.476 6.828 2.954 13.471 9.783 14.948 2.03.368 4.061.368 6.091-.185.369-.185.923-.184 1.476-.553.185-.185.554-.185.739-.37 1.476-.738 2.768-1.846 3.876-2.953l.553-.553c.554-.554.924-1.292 1.108-1.845 0-.185.184-.37.184-.555.37-.922.739-1.845.923-2.768.923-4.244-.369-8.488-3.506-11.44-1.662-1.661-3.876-2.953-6.276-3.506-.923 0-1.846-.185-2.768-.185z" fill="#9665FF"/><path d="M174.327 88.926a11.14 11.14 0 01-1.108 3.507c-.184.185-.184.554-.369.738-.369.923-.923 1.66-1.476 2.399-.185.369-.369.553-.739.923-1.476 1.66-3.137 2.952-4.983 3.875l-1.108.553c-.553.185-1.292.554-1.845.554-2.4.738-5.168.922-7.753.369-8.859-1.845-14.581-10.519-12.735-19.376 1.845-8.858 10.52-14.579 19.38-12.733 3.138.738 5.906 2.214 8.306 4.428 3.876 3.691 5.537 9.227 4.43 14.763z" fill="url(#paint9_linear_353_1931)"/><path fill-rule="evenodd" clip-rule="evenodd" d="M151.581 79.453h3.312l4.122 5.3h-3.239l-4.195-5.3zm10.084 0h3.313l-3.754 5.3-1.62-2.282 2.061-3.018zm-10.084 12.514h3.312l4.122-5.3h-3.238l-4.196 5.3zm10.084 0h3.313l-3.754-5.3-1.62 2.281 2.061 3.019z" fill="#fff"/><path d="M158.269 99.446c-.923 0-1.846-.185-2.769-.37-7.383-1.476-12.367-8.857-10.705-16.423.738-3.69 2.953-6.643 5.906-8.672 3.138-2.03 6.829-2.769 10.336-2.03 2.584.553 4.984 1.845 7.014 3.69 3.322 3.322 4.799 7.935 3.691 12.548-.184 1.107-.553 2.03-.922 2.953 0 .184-.185.369-.185.553-.369.738-.738 1.292-1.292 2.03-.184.185-.369.554-.554.738-1.107 1.292-2.584 2.4-4.245 3.323-.369.184-.554.368-.923.368l-1.661.554c-1.107.554-2.399.738-3.691.738zm0-26.573c-2.4 0-4.8.738-6.83 2.03-2.769 1.846-4.799 4.613-5.352 7.935-1.477 6.828 2.953 13.471 9.782 14.948 2.031.368 4.061.368 6.091-.185.369-.185.923-.184 1.477-.553.184-.185.554-.185.738-.37 1.477-.738 2.768-1.846 3.876-2.953l.554-.553c.553-.554.923-1.292 1.107-1.845 0-.185.185-.37.185-.555.369-.922.738-1.845.923-2.768.922-4.244-.369-8.488-3.507-11.44-1.661-1.661-3.876-2.953-6.276-3.506-.922 0-1.845-.185-2.768-.185z" fill="#9665FF"/><path d="M151.097 78.284a14.404 14.404 0 01-1.433 4.538c-.239.24-.239.717-.478.955-.477 1.195-1.194 2.15-1.911 3.105-.239.477-.477.716-.955 1.194-1.911 2.149-4.06 3.82-6.449 5.015l-1.433.716c-.717.239-1.673.717-2.389.717-3.105.955-6.688 1.193-10.032.477-11.466-2.388-18.871-13.612-16.482-25.075 2.389-11.463 13.615-18.866 25.081-16.478 4.06.955 7.643 2.865 10.748 5.731 5.016 4.776 7.167 11.94 5.733 19.105z" fill="url(#paint10_linear_353_1931)"/><path fill-rule="evenodd" clip-rule="evenodd" d="M121.661 66.024h4.287l5.335 6.859h-4.192l-5.43-6.859zm13.051 0h4.287l-4.859 6.859-2.095-2.953 2.667-3.906zm-13.051 16.195h4.287l5.335-6.86h-4.192l-5.43 6.86zm13.051 0h4.287l-4.859-6.86-2.095 2.954 2.667 3.906z" fill="#fff"/><path d="M130.316 91.898c-1.194 0-2.388-.24-3.583-.478-9.554-1.91-16.004-11.463-13.854-21.254.956-4.776 3.822-8.597 7.644-11.224 4.06-2.627 8.838-3.582 13.376-2.627 3.344.717 6.449 2.388 9.077 4.776 4.299 4.299 6.21 10.269 4.777 16.24-.239 1.432-.717 2.626-1.195 3.82 0 .24-.238.478-.238.716-.478.956-.955 1.672-1.672 2.627-.239.24-.478.717-.717.956-1.433 1.671-3.344 3.105-5.494 4.299-.477.239-.716.477-1.194.477l-2.149.717c-1.434.716-3.106.955-4.778.955zm0-34.389c-3.105 0-6.211.956-8.838 2.627-3.583 2.389-6.21 5.97-6.927 10.269-1.911 8.836 3.822 17.433 12.66 19.344 2.627.477 5.255.477 7.883-.24.477-.238 1.193-.238 1.91-.715.239-.239.717-.24.956-.478 1.911-.956 3.582-2.389 5.016-3.822l.716-.716c.717-.716 1.195-1.671 1.434-2.388 0-.238.238-.478.238-.717.478-1.194.956-2.388 1.194-3.582 1.195-5.493-.477-10.984-4.538-14.805-2.149-2.15-5.016-3.821-8.121-4.538-1.194 0-2.388-.239-3.583-.239z" fill="#9665FF"/><path d="M75.371 208.536h-16.61v10.945h16.61v-10.945z" fill="#8652F4"/><path d="M49.659 205.344l9.102 2.508v11.857l-9.102 2.964v-17.329z" fill="#6D3BD7"/><path d="M186.897 219.445h16.611V208.5h-16.611v10.945z" fill="#8652F4"/><path d="M212.582 205.344l-8.874 2.508v11.857l8.874 2.964v-17.329zM36.006 127.133l34.132 93.26c1.138 3.42 4.323 5.701 7.964 5.701h104.899c3.641 0 6.826-2.281 7.964-5.701l34.132-93.26H36.006z" fill="#6D3BD7"/><path d="M83.108 212.184L50.57 123.029h159.51l-32.539 89.155H83.108z" fill="#8652F4"/><path d="M221.001 131.465H38.737c-4.324 0-7.737-3.42-7.737-7.752v-8.893h197.738v8.893c0 4.104-3.413 7.752-7.737 7.752zM94.94 253c9.803 0 17.749-7.963 17.749-17.786 0-9.822-7.946-17.785-17.748-17.785-9.803 0-17.749 7.963-17.749 17.785 0 9.823 7.947 17.786 17.749 17.786z" fill="#6D3BD7"/><path d="M94.94 246.843c6.41 0 11.605-5.206 11.605-11.629 0-6.422-5.195-11.629-11.604-11.629-6.41 0-11.605 5.207-11.605 11.629 0 6.423 5.195 11.629 11.605 11.629z" fill="#8652F4"/><path d="M94.94 241.143a5.923 5.923 0 005.917-5.929 5.922 5.922 0 00-5.917-5.928c-3.267 0-5.916 2.654-5.916 5.928 0 3.275 2.649 5.929 5.916 5.929z" fill="#6D3BD7"/><path d="M41.467 125.309a2.278 2.278 0 002.276-2.281 2.278 2.278 0 00-2.276-2.28 2.278 2.278 0 00-2.275 2.28 2.278 2.278 0 002.275 2.281zm22.3 0a2.278 2.278 0 002.275-2.281 2.278 2.278 0 00-2.275-2.28 2.278 2.278 0 00-2.276 2.28 2.278 2.278 0 002.276 2.281zm22.072 0a2.278 2.278 0 002.275-2.281 2.278 2.278 0 00-2.275-2.28 2.278 2.278 0 00-2.276 2.28 2.278 2.278 0 002.276 2.281zm22.072 0a2.278 2.278 0 002.275-2.281 2.278 2.278 0 00-2.275-2.28 2.278 2.278 0 00-2.276 2.28 2.278 2.278 0 002.276 2.281zm22.072 0a2.277 2.277 0 002.275-2.281 2.277 2.277 0 00-2.275-2.28 2.278 2.278 0 00-2.276 2.28 2.278 2.278 0 002.276 2.281zm22.299 0a2.278 2.278 0 002.276-2.281 2.278 2.278 0 00-2.276-2.28 2.277 2.277 0 00-2.275 2.28 2.277 2.277 0 002.275 2.281zm22.072 0a2.278 2.278 0 002.276-2.281 2.278 2.278 0 00-2.276-2.28 2.278 2.278 0 00-2.275 2.28 2.278 2.278 0 002.275 2.281zm22.072 0a2.277 2.277 0 002.275-2.281 2.277 2.277 0 00-2.275-2.28 2.278 2.278 0 00-2.276 2.28 2.278 2.278 0 002.276 2.281zm22.072 0a2.278 2.278 0 002.276-2.281 2.278 2.278 0 00-2.276-2.28 2.278 2.278 0 00-2.275 2.28 2.278 2.278 0 002.275 2.281z" fill="#9665FF"/><path d="M165.252 253c9.803 0 17.749-7.963 17.749-17.786 0-9.822-7.946-17.785-17.749-17.785-9.802 0-17.748 7.963-17.748 17.785 0 9.823 7.946 17.786 17.748 17.786z" fill="#6D3BD7"/><path d="M165.252 246.843c6.41 0 11.605-5.206 11.605-11.629 0-6.422-5.195-11.629-11.605-11.629-6.409 0-11.604 5.207-11.604 11.629 0 6.423 5.195 11.629 11.604 11.629z" fill="#8652F4"/><path d="M165.252 241.143a5.923 5.923 0 005.917-5.929 5.922 5.922 0 00-5.917-5.928c-3.267 0-5.916 2.654-5.916 5.928 0 3.275 2.649 5.929 5.916 5.929zm43.25-101.636l-143.18 89.53 4.874 7.826 143.18-89.53-4.874-7.826z" fill="#6D3BD7"/><path d="M36.939 147.399l143.18 89.53 4.873-7.826-143.18-89.53-4.873 7.826z" fill="#6D3BD7"/><path d="M151.306 236.34a2.363 2.363 0 002.361-2.365 2.363 2.363 0 00-2.361-2.366 2.363 2.363 0 00-2.36 2.366 2.363 2.363 0 002.36 2.365zm19.591 0a2.363 2.363 0 002.361-2.365 2.363 2.363 0 00-2.361-2.366 2.363 2.363 0 00-2.36 2.366 2.363 2.363 0 002.36 2.365zm-92.525 0a2.363 2.363 0 002.36-2.365 2.363 2.363 0 00-2.36-2.366 2.363 2.363 0 00-2.36 2.366 2.363 2.363 0 002.36 2.365zm19.355 0a2.363 2.363 0 002.361-2.365 2.363 2.363 0 00-2.36-2.366 2.363 2.363 0 00-2.361 2.366 2.363 2.363 0 002.36 2.365z" fill="#9665FF"/><path d="M91.671 55.031l2.124-.473c.472-.236.472-.71 0-.946l-2.124-.473c-.708-.236-1.416-.71-1.652-1.656l-.472-2.128c-.236-.473-.708-.473-.944 0l-.472 2.129c-.236.71-.709 1.419-1.653 1.655l-2.124.473c-.472.237-.472.71 0 .946l2.124.473c.709.237 1.417.71 1.653 1.656l.472 2.129c.236.473.708.473.944 0l.472-2.129c.472-.71.944-1.42 1.652-1.656zm142.056 125.291l1.888-.473c.472 0 .472-.71 0-.71l-1.888-.473c-.708-.236-1.18-.709-1.416-1.419l-.472-1.892c0-.473-.708-.473-.708 0l-.472 1.892c-.237.71-.709 1.183-1.417 1.419l-1.888.473c-.472 0-.472.71 0 .71l1.888.473c.708.236 1.18.709 1.417 1.419l.472 1.892c0 .473.708.473.708 0l.472-1.892c.236-.71.708-1.419 1.416-1.419z" fill="#8652F4"/><path d="M226.97 24.524c.29 1.657.28 3.163.044 4.742-.153.3-.005.752-.158 1.052-.083 1.279-.467 2.405-.851 3.53-.079.527-.231.827-.536 1.427-1.146 2.626-2.666 4.874-4.56 6.743l-1.137 1.121c-.605.447-1.362 1.196-2.041 1.417-2.646 1.864-5.966 3.196-9.356 3.55-11.598 1.28-22.08-7.065-23.358-18.661-1.278-11.596 7.07-22.077 18.668-23.356 4.142-.35 8.126.353 11.953 2.109 6.227 2.975 10.476 9.097 11.332 16.326z" fill="url(#paint11_linear_353_1931)"/><path fill-rule="evenodd" clip-rule="evenodd" d="M195.299 22.003l4.06-1.324 7.172 4.85-3.97 1.294-7.262-4.82zm12.362-4.031l4.061-1.324-2.484 7.998-2.897-2.15 1.32-4.524zm-7.36 19.372l4.061-1.324 2.935-8.145-3.971 1.294-3.025 8.175zm12.363-4.032l4.06-1.324-6.72-4.996-1.073 3.445 3.733 2.875z" fill="#fff"/><path d="M211.49 43.84c-1.132.368-2.337.51-3.542.653-9.641 1.142-18.701-5.915-19.689-15.854-.57-4.82.965-9.323 3.774-12.992 3.035-3.743 7.265-6.124 11.86-6.62 3.389-.355 6.846.27 10.073 1.72 5.4 2.744 9.054 7.809 9.541 13.907.216 1.43.133 2.71.049 3.988.074.227-.079.526-.005.752-.157 1.053-.388 1.88-.772 3.005-.153.3-.231.826-.384 1.126-.841 2.027-2.209 3.975-3.876 5.77-.379.374-.532.673-.984.82l-1.815 1.344c-1.136 1.121-2.646 1.864-4.23 2.38zm-10.623-32.576c-2.941.96-5.588 2.824-7.56 5.219-2.657 3.369-4.039 7.573-3.39 11.866.919 8.96 9.005 15.334 17.967 14.414 2.637-.36 5.126-1.171 7.393-2.662.379-.373 1.058-.594 1.589-1.268.152-.3.605-.448.758-.748 1.515-1.495 2.656-3.37 3.571-5.17l.457-.899c.458-.9.616-1.952.621-2.705-.074-.226.078-.526.004-.753.084-1.278.167-2.557.025-3.762-.566-5.572-3.846-10.258-8.872-12.623-2.701-1.372-5.932-2.07-9.095-1.79-1.131.37-2.336.512-3.468.881z" fill="#9665FF"/><path d="M25.668 189.439a8.148 8.148 0 01-1.747 2.048c-.178.072-.283.321-.46.393-.512.517-1.096.856-1.68 1.196-.23.196-.407.268-.761.411-1.47.699-2.959 1.096-4.467 1.191l-.905.057c-.425-.033-1.029.005-1.402-.153-1.829-.187-3.748-.853-5.333-1.964-5.447-3.772-6.83-11.254-3.058-16.7 3.773-5.446 11.255-6.828 16.702-3.055 1.905 1.393 3.351 3.179 4.337 5.357 1.56 3.595 1.1 7.802-1.226 11.219z" fill="url(#paint12_linear_353_1931)"/><path fill-rule="evenodd" clip-rule="evenodd" d="M13.034 176.559l2.234.945 1.267 4.751-2.184-.925-1.317-4.771zm6.8 2.878l2.234.946-4.044 2.502-.441-2.001 2.251-1.447zm-10.371 5.56l2.233.946 4.293-2.398-2.184-.924-4.342 2.376zm6.8 2.878l2.233.946-1.018-4.645-1.744 1.076.529 2.623z" fill="#fff"/><path d="M11.838 191.95c-.622-.264-1.192-.652-1.762-1.04-4.557-3.102-5.81-9.502-2.531-14.129 1.55-2.278 3.887-3.637 6.457-4.163 2.696-.473 5.396.083 7.55 1.581 1.584 1.111 2.833 2.667 3.676 4.49 1.292 3.188.971 6.72-1.092 9.515-.44.694-.953 1.211-1.465 1.728-.053.124-.23.196-.282.32-.46.393-.867.661-1.45 1.001-.178.071-.408.267-.585.339-1.115.555-2.427.881-3.81 1.029-.302.019-.48.09-.728-.015l-1.278-.101c-.905.058-1.829-.187-2.7-.555zm7.584-17.919c-1.619-.685-3.447-.872-5.185-.58-2.394.454-4.552 1.741-5.874 3.823-2.944 4.183-1.853 9.927 2.33 12.871 1.264.828 2.634 1.408 4.16 1.614.302-.019.675.139 1.154.048.177-.072.426.033.604-.038 1.206-.077 2.393-.455 3.456-.885l.531-.215c.532-.216.991-.608 1.274-.929.052-.124.23-.196.282-.321.512-.516 1.024-1.033 1.412-1.603 1.834-2.598 2.174-5.829.9-8.715-.646-1.594-1.77-3.097-3.23-4.155-.623-.264-1.192-.651-1.814-.915z" fill="#9665FF"/><defs><linearGradient id="paint0_linear_353_1931" x1="67.693" y1="88.502" x2="90.824" y2="88.502" gradientUnits="userSpaceOnUse"><stop offset=".003" stop-color="#8652F4"/><stop offset="1" stop-color="#6D3BD7"/></linearGradient><linearGradient id="paint1_linear_353_1931" x1="169.881" y1="88.502" x2="193.012" y2="88.502" gradientUnits="userSpaceOnUse"><stop offset=".003" stop-color="#8652F4"/><stop offset="1" stop-color="#6D3BD7"/></linearGradient><linearGradient id="paint2_linear_353_1931" x1="120.273" y1="107.183" x2="159.788" y2="107.183" gradientUnits="userSpaceOnUse"><stop offset=".003" stop-color="#8652F4"/><stop offset="1" stop-color="#6D3BD7"/></linearGradient><linearGradient id="paint3_linear_353_1931" x1="74.441" y1="106.819" x2="97.572" y2="106.819" gradientUnits="userSpaceOnUse"><stop offset=".003" stop-color="#8652F4"/><stop offset="1" stop-color="#6D3BD7"/></linearGradient><linearGradient id="paint4_linear_353_1931" x1="152.568" y1="106.708" x2="191.119" y2="106.708" gradientUnits="userSpaceOnUse"><stop offset=".003" stop-color="#8652F4"/><stop offset="1" stop-color="#6D3BD7"/></linearGradient><linearGradient id="paint5_linear_353_1931" x1="90.388" y1="107.183" x2="129.903" y2="107.183" gradientUnits="userSpaceOnUse"><stop offset=".003" stop-color="#8652F4"/><stop offset="1" stop-color="#6D3BD7"/></linearGradient><linearGradient id="paint6_linear_353_1931" x1="46.509" y1="106.75" x2="79.278" y2="106.75" gradientUnits="userSpaceOnUse"><stop offset=".003" stop-color="#8652F4"/><stop offset="1" stop-color="#6D3BD7"/></linearGradient><linearGradient id="paint7_linear_353_1931" x1="181.474" y1="106.75" x2="214.243" y2="106.75" gradientUnits="userSpaceOnUse"><stop offset=".003" stop-color="#8652F4"/><stop offset="1" stop-color="#6D3BD7"/></linearGradient><linearGradient id="paint8_linear_353_1931" x1="85.071" y1="85.541" x2="117.839" y2="85.541" gradientUnits="userSpaceOnUse"><stop offset=".003" stop-color="#8652F4"/><stop offset="1" stop-color="#6D3BD7"/></linearGradient><linearGradient id="paint9_linear_353_1931" x1="141.949" y1="85.541" x2="174.717" y2="85.541" gradientUnits="userSpaceOnUse"><stop offset=".003" stop-color="#8652F4"/><stop offset="1" stop-color="#6D3BD7"/></linearGradient><linearGradient id="paint10_linear_353_1931" x1="109.197" y1="73.903" x2="151.603" y2="73.903" gradientUnits="userSpaceOnUse"><stop offset=".003" stop-color="#8652F4"/><stop offset="1" stop-color="#6D3BD7"/></linearGradient><linearGradient id="paint11_linear_353_1931" x1="185.925" y1="33.317" x2="226.095" y2="20.218" gradientUnits="userSpaceOnUse"><stop offset=".003" stop-color="#8652F4"/><stop offset="1" stop-color="#6D3BD7"/></linearGradient><linearGradient id="paint12_linear_353_1931" x1="4.802" y1="177.916" x2="26.898" y2="187.267" gradientUnits="userSpaceOnUse"><stop offset=".003" stop-color="#8652F4"/><stop offset="1" stop-color="#6D3BD7"/></linearGradient></defs></svg>