<svg width="240" height="240" fill="none" xmlns="http://www.w3.org/2000/svg"><path d="M120 240c66.274 0 120-53.726 120-120S186.274 0 120 0 0 53.726 0 120s53.726 120 120 120z" fill="#170F2D"/><path d="M111.891 179.935l76.832-78.299c13.196-13.447 13.196-35.57 0-49.018-13.195-13.447-34.904-13.447-48.1 0L51.02 143.714l-28.945 29.498c-2.767 2.819-2.767 7.157 0 9.76 2.767 2.603 7.024 2.82 9.578 0l20.006-20.388 4.682-4.772c2.554-2.603 7.024-2.603 9.578 0 2.554 2.603 2.554 7.158 0 9.76l-4.683 4.772-2.128 2.169c-2.767 2.82-2.554 7.158 0 9.76 1.277 1.302 2.98 1.952 4.895 1.952 1.703 0 3.406-.65 4.895-1.952l2.129-2.169 2.554-2.602c2.554-2.603 7.023-2.603 9.577 0 2.554 2.602 2.554 7.157 0 9.76l-2.554 2.603-10.003 10.194c-2.767 2.819-2.767 7.157 0 9.76 2.767 2.82 7.024 2.82 9.578 0l36.82-37.523c.213.217-5.321 5.856-5.108 5.639z" fill="#9665FF"/><path d="M187.853 86.258c8.727-8.894 8.727-23.313 0-32.207a22.053 22.053 0 00-31.604 0c-8.727 8.894-8.727 23.313 0 32.207a22.053 22.053 0 0031.604 0z" fill="#6D3BD7"/><path d="M162.545 120.506l22.56-22.99c10.855-11.062 10.855-29.064 0-40.126l-1.064-1.301a27.507 27.507 0 00-39.374 0l-47.675 48.584-.213.217-18.303 18.653c-1.277 1.301-1.277 3.253 0 4.555 1.277 1.301 3.192 1.301 4.47 0l1.276-1.302 15.537-15.833c1.277-1.301 3.193-1.301 4.47 0 1.277 1.301 1.277 3.253 0 4.555L71.027 149.57c-1.277 1.302-1.277 3.254 0 4.555 1.277 1.301 3.192 1.301 4.47 0l17.664-18.002 4.044-4.121c1.277-1.302 3.193-1.302 4.47 0 1.277 1.301 1.277 3.253 0 4.555l-4.044 4.121-8.94 9.109c-1.276 1.302-1.276 3.254 0 4.555 1.278 1.301 3.193 1.301 4.47 0l10.429-10.628c1.277-1.301 3.193-1.301 4.47 0 1.277 1.301 1.277 3.254 0 4.555l-1.49 1.518-17.027 17.352c-1.277 1.301-1.277 3.253 0 4.555 1.277 1.301 3.193 1.301 4.47 0l17.026-17.352 12.983-13.231c1.277-1.301 3.193-1.301 4.47 0 1.064 1.085 1.277 3.037.212 4.338l-21.283 22.124c-1.277 1.301-1.277 3.253 0 4.554 1.277 1.302 3.193 1.302 4.47 0l50.015-50.97c.426 0 .426-.217.639-.651zm-59.593 56.392c-1.277-1.301-3.193-1.301-4.47 0l-4.044 4.121c-1.277 1.302-1.277 3.254 0 4.555 1.277 1.301 3.193 1.301 4.47 0l4.044-4.121c1.277-1.301 1.277-3.47 0-4.555z" fill="#8652F4"/><path d="M168.291 105.758l-18.303 18.653c-.639.65-1.49.867-2.341.867-.852 0-1.703-.217-2.342-.867-1.064-1.085-1.277-3.037-.212-4.338l6.597-6.724c1.277-1.301 1.277-3.254 0-4.555-1.277-1.301-3.192-1.301-4.469 0l-24.902 25.377c-1.277 1.301-3.192 1.301-4.469 0-1.277-1.302-1.277-3.254 0-4.555l19.793-20.171c1.277-1.302 1.277-3.254 0-4.555-1.277-1.301-3.192-1.301-4.469 0l-13.409 13.664c-1.277 1.302-3.192 1.302-4.469 0-1.277-1.301-1.277-3.253 0-4.554l22.773-23.208c1.277-1.302 1.277-3.254 0-4.555-1.277-1.301-3.192-1.301-4.469 0L121.042 98.6c-1.277 1.301-3.192 1.301-4.469 0-1.277-1.301-1.277-3.253 0-4.555l33.84-34.486 31.5 32.1-13.196 13.448c0 .217-.213.434-.426.651z" fill="#6D3BD7"/><path d="M201.435 52.71c1.459 2.386 2.368 4.726 2.977 7.32-.049.56.454 1.17.405 1.73.657 2.033.763 4.018.87 6.003.203.864.155 1.424.058 2.544-.134 4.786-1.07 9.218-2.808 13.297l-1.044 2.447c-.647 1.07-1.341 2.703-2.239 3.47-2.887 4.54-7.127 8.678-12.072 11.343-16.881 9.223-37.965 2.833-47.026-14.34-9.062-17.174-2.777-38.627 14.104-47.85 6.094-3.127 12.593-4.525 19.499-4.193 11.309.723 21.538 7.558 27.276 18.228z" fill="url(#paint0_linear_353_1933)"/><path fill-rule="evenodd" clip-rule="evenodd" d="M151.65 68.573l5.373-4.587 13.899 3.038-5.254 4.485-14.018-2.936zm16.357-13.965l5.372-4.587 1.124 13.945-5.732-1.523-.764-7.835zm.674 34.616l5.372-4.587-.527-14.454-5.253 4.484.408 14.557zm16.356-13.965l5.373-4.587-13.302-3.547.479 6.008 7.45 2.126z" fill="#fff"/><path d="M189.708 92.306c-1.497 1.278-3.246 2.251-4.994 3.225-13.983 7.787-32.112 2.507-39.714-12.28-3.826-7.113-4.251-15.051-2.224-22.49 2.327-7.696 7.309-14.026 14.002-17.664 4.944-2.665 10.594-3.855 16.398-3.622 9.909.881 18.582 6.45 23.065 15.597 1.207 2.082 1.864 4.117 2.521 6.15.251.305.203.864.454 1.169.406 1.729.561 3.154.668 5.139-.049.56.154 1.425.106 1.985-.038 3.665-.926 7.538-2.364 11.361-.348.816-.397 1.375-.996 1.886l-1.94 3.215c-1.042 2.447-2.887 4.54-4.982 6.33zm-36.165-43.853c-3.892 3.323-6.779 7.865-8.314 12.808-1.979 6.88-1.505 14.258 2.117 20.506 6.898 13.313 23.124 18.142 36.21 11.122 3.795-2.203 7.088-5.015 9.627-8.74.348-.816 1.246-1.581 1.642-2.957.048-.56.647-1.072.695-1.632 1.39-3.263 1.978-6.88 2.268-10.24l.145-1.68c.144-1.68-.261-3.41-.715-4.58-.251-.304-.204-.865-.455-1.17-.657-2.033-1.314-4.067-2.271-5.845-4.279-8.283-12.15-13.497-21.257-14.025-4.955-.44-10.305.495-14.95 2.904-1.497 1.278-3.245 2.251-4.742 3.53zm5.625-18.926a1.979 1.979 0 000-2.76 1.89 1.89 0 00-2.709 0 1.979 1.979 0 000 2.76 1.89 1.89 0 002.709 0z" fill="#9665FF"/><path d="M133.719 40.934a2.419 2.419 0 000-3.375 2.31 2.31 0 00-3.311 0 2.417 2.417 0 000 3.375 2.31 2.31 0 003.311 0zm11.553-15.309a1.758 1.758 0 000-2.453 1.68 1.68 0 00-2.408 0 1.76 1.76 0 000 2.453 1.68 1.68 0 002.408 0z" fill="#8652F4"/><path d="M181.525 126.24a2.198 2.198 0 000-3.067 2.1 2.1 0 00-3.01 0 2.198 2.198 0 000 3.067 2.1 2.1 0 003.01 0z" fill="#9665FF"/><path d="M216.097 79.252a2.419 2.419 0 000-3.374 2.31 2.31 0 00-3.311 0 2.419 2.419 0 000 3.374 2.31 2.31 0 003.311 0z" fill="#8652F4"/><path d="M216.072 94.015a1.975 1.975 0 00-.577-2.697 1.895 1.895 0 00-2.647.588 1.975 1.975 0 00.577 2.697c.89.582 2.075.32 2.647-.588zm-15.838 14.45c.825-1.31.452-3.054-.834-3.896a2.735 2.735 0 00-3.822.849c-.826 1.31-.453 3.055.833 3.896a2.737 2.737 0 003.823-.849zm-166.918 2.457a1.538 1.538 0 00-.449-2.101 1.476 1.476 0 00-2.061.458 1.538 1.538 0 00.45 2.101 1.476 1.476 0 002.06-.458zm144 68a1.538 1.538 0 00-.449-2.101 1.476 1.476 0 00-2.061.458 1.539 1.539 0 00.449 2.101 1.476 1.476 0 002.061-.458zM144.329 42.235a1.538 1.538 0 000-2.147 1.47 1.47 0 00-2.107 0 1.538 1.538 0 000 2.147 1.47 1.47 0 002.107 0z" fill="#9665FF"/><path d="M176.924 25.502a1.539 1.539 0 000-2.147 1.47 1.47 0 00-2.107 0 1.54 1.54 0 000 2.147 1.47 1.47 0 002.107 0zm40.122 86.217a1.32 1.32 0 000-1.841 1.26 1.26 0 00-1.806 0 1.321 1.321 0 000 1.841 1.26 1.26 0 001.806 0zm-4.11-57.783a1.318 1.318 0 000-1.84 1.26 1.26 0 00-1.806 0 1.318 1.318 0 000 1.84 1.26 1.26 0 001.806 0z" fill="#8652F4"/><path d="M124.572 59.329a3.737 3.737 0 000-5.215 3.57 3.57 0 00-5.116 0 3.737 3.737 0 000 5.215 3.57 3.57 0 005.116 0z" fill="#9665FF"/><path d="M111.465 122.241c-1.277-1.301-3.192-1.301-4.469 0l-1.49 1.518c-1.277 1.302-1.277 3.254 0 4.555 1.277 1.301 3.192 1.301 4.469 0l1.49-1.518c1.277-1.302 1.277-3.471 0-4.555z" fill="#6D3BD7"/><path d="M82.094 162.149c1.49 1.085 3.406.651 4.47-.867 1.064-1.519.638-3.471-.851-4.555-1.49-1.085-3.406-.651-4.47.867-1.064 1.519-.638 3.471.851 4.555zm-22.773 3.688c1.49 1.084 3.406.651 4.47-.868 1.064-1.518.638-3.47-.852-4.554-1.49-1.085-3.405-.651-4.47.867-1.063 1.518-.638 3.687.852 4.555z" fill="#8652F4"/><path d="M44.848 201.19c2.98 1.952 7.024 1.301 9.152-1.952 1.916-3.037 1.277-7.158-1.915-9.327-2.98-1.952-7.024-1.301-9.152 1.952-1.916 3.037-1.064 7.158 1.915 9.327zm7.024 13.013c-1.064 1.735-.639 3.904 1.064 5.206 1.703 1.084 3.831.65 5.108-1.085 1.064-1.735.639-3.904-1.064-5.205-.851-.434-1.703-.651-2.767-.434-.851 0-1.703.651-2.341 1.518 0-.217 0 0 0 0z" fill="#9665FF"/><path d="M75.283 131.351c-1.277-1.302-3.192-1.302-4.469 0-1.277 1.301-1.277 3.253 0 4.555 1.277 1.301 3.192 1.301 4.47 0 1.276-1.085 1.276-3.254 0-4.555z" fill="#8652F4"/><path d="M142.539 127.447c-1.277-1.302-3.193-1.302-4.47 0l-1.703 1.735c-1.277 1.301-1.277 3.253 0 4.555 1.277 1.301 3.193 1.301 4.47 0l1.703-1.736c1.277-1.301 1.277-3.253 0-4.554z" fill="#6D3BD7"/><defs><linearGradient id="paint0_linear_353_1933" x1="144.314" y1="91.958" x2="198.221" y2="47.502" gradientUnits="userSpaceOnUse"><stop offset=".003" stop-color="#8652F4"/><stop offset="1" stop-color="#6D3BD7"/></linearGradient></defs></svg>