<svg viewBox="0 0 918 123" fill="none" xmlns="http://www.w3.org/2000/svg">
  <g clip-path="url(#clip0)">
    <path
      d="M214.704 60.2363C214.074 60.6575 213.864 61.2894 213.654 61.7106C205.469 75.1901 197.284 88.6695 189.099 102.36C187.839 104.676 184.901 105.519 182.593 104.255C181.963 104.045 181.543 103.413 181.123 102.781C175.876 93.9349 170.63 85.2997 165.173 76.4538C162.235 71.6096 159.296 66.5548 156.358 61.7106C156.148 61.2894 155.938 60.6575 155.309 60.2363C155.309 60.8682 155.309 61.5 155.309 62.1319C155.309 81.7192 155.309 101.307 155.309 120.894C155.309 123.211 155.518 123 153.21 123C143.765 123 134.531 123 125.086 123C124.667 123 124.247 123 124.037 123C123.407 123 123.197 122.789 123.197 122.158C123.197 121.736 123.197 121.315 123.197 121.104C123.197 81.5086 123.197 41.7021 123.197 2.10616C123.197 0 122.988 0 125.086 0C134.111 0 143.136 0 151.951 0C154.049 0 155.309 0.631849 156.358 2.5274C165.383 17.6918 174.617 33.0668 183.642 48.2312C184.062 48.863 184.272 49.2842 184.691 49.9161C185.111 49.7055 185.321 49.2842 185.531 48.863C194.765 33.488 204 18.113 213.025 2.73801C214.074 0.842466 215.543 0 217.642 0C226.457 0 235.481 0 244.506 0C244.926 0 245.346 0 245.555 0C246.185 0 246.395 0.210616 246.395 0.842466C246.395 1.2637 246.395 1.68493 246.395 1.89555C246.395 41.4914 246.395 81.298 246.395 120.894C246.395 123.211 246.605 122.789 244.506 122.789C235.062 122.789 225.617 122.789 216.173 122.789C214.284 122.789 214.494 123 214.494 121.104C214.494 101.517 214.494 81.7192 214.494 62.1319C214.704 61.7106 214.704 61.0788 214.704 60.2363Z"
      fill="#0FE6B0" />
    <path
      d="M341.259 60.2363C342.309 61.0788 343.148 61.7107 344.198 62.3425C350.914 68.0292 354.901 75.1901 356.371 83.8254C358.469 97.0942 352.173 110.784 340.21 117.945C334.963 121.104 329.296 122.789 323 122.789C300.333 122.789 277.667 122.789 255 122.789C254.79 122.789 254.58 122.789 254.37 122.789C253.741 122.789 253.531 122.579 253.531 121.947C253.531 121.736 253.531 121.315 253.531 120.894C253.531 81.0874 253.531 41.4915 253.531 1.68498C253.531 1.47436 253.531 1.26374 253.531 1.05313C253.531 -0.210571 253.531 -0.210571 254.79 -0.210571C255 -0.210571 255.21 -0.210571 255.42 -0.210571C275.988 -0.210571 296.766 -0.210571 317.333 -0.210571C331.815 -0.210571 348.605 9.05655 351.753 29.2757C353.432 40.649 350.284 50.548 342.309 58.762C341.889 59.3939 341.469 59.6045 341.259 60.2363ZM298.445 96.8836C302.012 96.8836 305.58 96.8836 309.148 96.8836C317.333 96.673 323 88.6696 320.482 80.8768C318.803 75.6113 314.185 72.0309 308.519 72.0309C301.383 72.0309 294.247 72.0309 287.111 72.0309C285.642 72.0309 285.642 72.0309 285.642 73.5052C285.642 80.8768 285.642 88.2483 285.642 95.6199C285.642 96.8836 285.642 96.8836 287.111 96.8836C290.889 96.8836 294.667 96.8836 298.445 96.8836ZM285.642 37.2792C285.642 39.5959 285.642 41.9127 285.642 44.2295C285.642 45.7038 285.642 47.3887 285.642 48.8631C285.642 49.4949 285.852 49.9161 286.482 49.9161C286.692 49.9161 287.111 49.9161 287.321 49.9161C293.827 49.9161 300.333 49.9161 306.84 49.9161C307.679 49.9161 308.729 49.9161 309.568 49.7055C316.494 48.6524 321.321 41.0702 319.432 34.3305C317.963 28.8545 312.926 25.0634 307.259 25.0634C300.543 25.0634 293.827 25.0634 287.111 25.0634C285.642 25.0634 285.642 25.0634 285.642 26.5377C285.642 30.1182 285.642 33.6987 285.642 37.2792Z"
      fill="#0FE6B0" />
    <path
      d="M0 123C0 122.368 0.209877 121.736 0.419753 121.315C15.1111 81.5086 29.8025 41.7021 44.4938 1.89561C44.4938 1.68499 44.4938 1.68499 44.7037 1.47438C45.1235 6.28587e-05 45.1235 6.28466e-05 46.5926 6.28466e-05C55.1975 6.28466e-05 64.0123 6.28466e-05 72.6173 6.28466e-05C74.0864 6.28466e-05 73.8765 -0.210554 74.716 1.47438C79.3333 14.1114 84.1605 26.959 88.7778 39.596C98.642 66.5549 108.716 93.5138 118.58 120.473C119.42 122.789 119.42 122.789 116.901 122.789C106.827 122.789 96.5432 122.789 86.4691 122.789C84.5802 122.789 85 123.211 84.1605 121.315C82.4815 116.682 80.8025 112.048 78.9136 107.204C78.4938 105.73 78.2839 105.73 76.8148 105.73C65.2716 105.73 53.7284 105.73 42.1852 105.73C40.716 105.73 40.716 105.73 40.2963 106.993C38.4074 111.837 36.7284 116.682 34.8395 121.526C34.6296 122.368 34 122.789 33.1605 122.789C22.4568 122.789 11.7531 122.789 0.839506 122.789C0.62963 123 0.419753 123 0 123ZM59.8148 45.7038C59.8148 45.7038 59.6049 45.7038 59.3951 45.7038C56.2469 56.2347 53.0988 66.7655 49.9506 77.2963C52.2593 77.5069 68 77.5069 69.0494 77.2963C65.9012 66.5549 62.963 56.024 59.8148 45.7038Z"
      fill="#0FE6B0" />
    <path
      d="M856.716 122.789H391.42C381.556 122.789 373.37 114.575 373.37 104.676V18.113C373.37 8.21404 381.556 0 391.42 0H856.926C890.506 0 918.21 27.5908 918.21 61.5C918 95.1986 890.506 122.789 856.716 122.789Z"
      fill="#FD035C" />
    <path
      d="M562.889 103.413C562.469 103.623 562.049 103.623 561.63 103.623C553.864 103.623 546.099 103.623 538.333 103.623C538.124 103.623 537.914 103.623 537.704 103.623C536.864 103.623 536.235 103.413 535.815 102.57C534.975 100.675 533.926 98.7791 532.877 96.6729C529.938 90.7757 526.79 85.089 523.852 79.1918C523.432 78.3493 522.803 77.9281 521.753 77.9281C517.765 77.9281 513.568 77.9281 509.58 77.9281C508.321 77.9281 508.321 77.9281 508.321 79.1918C508.321 86.774 508.321 94.5668 508.321 102.149C508.321 103.623 508.741 103.834 506.852 103.834C499.716 103.834 492.58 103.834 485.444 103.834C483.346 103.834 483.765 103.834 483.765 102.149C483.765 75.1901 483.765 48.2312 483.765 21.2723C483.765 19.3767 483.556 19.5873 485.444 19.5873C499.506 19.5873 513.568 19.3767 527.63 19.5873C536.864 19.7979 544.63 23.589 549.877 31.5925C556.593 41.9127 554.704 55.3921 545.889 63.8168C545.259 64.238 544.84 64.8699 544.21 65.2911C543.37 65.7123 543.58 66.1335 544 66.976C546.309 71.399 548.617 75.8219 550.926 80.2448C554.704 87.6164 558.482 94.7774 562.259 102.149C562.469 102.57 562.889 102.991 562.889 103.413ZM515.457 39.1746C513.568 39.1746 511.469 39.1746 509.58 39.1746C508.531 39.1746 508.531 39.1746 508.531 40.2277C508.531 44.8613 508.531 49.4949 508.531 54.1284C508.531 55.1815 508.531 55.1815 509.58 55.1815C513.358 55.1815 517.136 55.1815 521.124 55.1815C525.321 55.1815 528.679 51.8116 529.099 47.8099C529.519 43.387 526.161 39.3853 521.753 39.1746C519.444 38.964 517.556 39.1746 515.457 39.1746Z"
      fill="#F1E8EC" />
    <path
      d="M834.889 103.623C812.432 103.834 792.494 85.5103 792.494 61.0788C792.494 38.1216 811.383 18.5342 835.519 18.7448C857.976 18.9555 877.704 37.0685 877.494 61.7106C877.074 86.3527 856.716 103.834 834.889 103.623ZM853.358 61.5C853.358 51.8116 845.803 44.0188 836.148 44.0188C826.494 44.0188 818.519 51.8116 818.519 61.5C818.519 71.1883 826.284 78.9812 835.939 78.9812C845.593 78.9812 853.358 71.1883 853.358 61.5Z"
      fill="#F1E8EC" />
    <path
      d="M638.445 61.2894C638.445 48.0205 638.445 34.5411 638.445 21.2722C638.445 21.0616 638.445 20.6404 638.445 20.2192C638.445 19.3767 638.655 19.1661 639.494 19.3767C642.013 19.3767 644.531 19.3767 647.05 19.3767C657.334 19.3767 667.408 19.1661 677.692 19.3767C690.704 19.7979 700.568 25.4846 706.445 37.0685C711.482 46.9674 710.223 56.8664 703.507 65.7123C698.469 72.452 691.544 76.2431 683.358 77.7174C681.05 78.1387 678.951 78.3493 676.642 78.3493C672.235 78.3493 668.037 78.3493 663.63 78.3493C662.371 78.3493 662.371 78.3493 662.371 79.613C662.371 86.9846 662.371 94.3561 662.371 101.728C662.371 101.938 662.371 102.36 662.371 102.781C662.371 103.413 662.161 103.623 661.531 103.623C661.321 103.623 660.902 103.623 660.692 103.623C653.766 103.623 646.84 103.623 639.914 103.623H639.704C638.235 103.623 638.235 103.623 638.235 102.149C638.235 92.0394 638.235 81.9298 638.235 72.0308C638.445 68.4503 638.445 64.8698 638.445 61.2894ZM662.79 47.8099C662.79 50.1267 662.79 52.4435 662.79 54.5496C662.79 55.8133 662.79 56.0239 664.05 56.0239C668.247 56.0239 672.235 56.0239 676.432 56.0239C677.062 56.0239 677.692 56.0239 678.321 55.8133C682.099 54.7602 684.618 51.1798 684.198 47.3887C683.778 44.0188 680.84 40.0171 676.432 40.0171C672.235 40.0171 668.037 40.0171 663.63 40.0171C662.581 40.0171 662.581 40.0171 662.581 41.0702C662.79 43.1763 662.79 45.4931 662.79 47.8099Z"
      fill="#F1E8EC" />
    <path
      d="M471.383 31.3819C468.864 33.488 466.556 35.5942 464.247 37.7003C461.099 40.4384 458.161 43.1764 455.013 45.7038C454.173 46.5462 454.173 46.5462 453.124 45.9144C450.815 44.4401 448.296 43.1764 445.778 42.5445C439.901 41.2808 434.864 42.7551 430.457 46.7569C422.482 53.7072 421.642 66.3442 428.358 74.3476C435.284 82.5616 447.037 83.1935 454.803 75.6113C455.642 74.7688 456.482 73.7158 457.321 72.8733C457.951 72.0308 457.951 72.0308 458.79 72.6627C460.469 74.137 462.148 75.4007 463.827 76.875C467.815 80.0343 471.593 83.4041 475.371 86.5634C475.371 87.1952 475.161 87.1952 474.741 87.6164C468.654 94.988 461.099 100.253 451.654 102.57C451.025 102.781 450.395 102.991 449.975 102.991C449.136 102.991 448.926 103.413 448.926 104.255C448.926 106.361 448.926 108.678 448.926 110.784C448.926 111.837 448.926 111.837 447.877 111.837C446.198 111.837 444.309 111.837 442.63 111.837C441.371 111.837 441.371 111.837 441.371 110.574C441.371 108.678 441.371 106.783 441.371 104.887C441.371 103.834 441.371 103.834 440.321 103.623C438.852 103.623 437.173 103.623 435.704 103.202C435.284 103.623 435.494 104.045 435.494 104.466C435.494 106.361 435.494 108.467 435.494 110.363C435.494 111.627 435.494 111.627 434.235 111.627C432.556 111.627 430.877 111.627 429.198 111.627C428.148 111.627 428.148 111.627 427.938 110.574C427.938 107.836 427.938 105.308 427.938 102.57C427.938 100.885 428.148 101.307 426.679 100.675C417.445 96.6729 410.309 90.3545 405.482 81.2979C401.704 73.9264 400.025 66.1336 400.654 57.9195C401.914 43.5976 408.63 32.6456 420.803 25.0634C422.692 23.7997 424.79 22.9572 426.679 22.1147C427.519 21.9041 427.729 21.4829 427.729 20.6404C427.729 17.9024 427.729 15.1644 427.729 12.4264C427.729 11.3733 427.729 11.3733 428.778 11.3733C430.667 11.3733 432.556 11.3733 434.235 11.3733C434.864 11.3733 435.074 11.5839 435.074 12.2158C435.074 14.3219 435.074 16.4281 435.074 18.5343C435.074 20.0086 435.074 20.0086 436.333 19.7979C437.383 19.5873 438.642 19.5873 439.901 19.5873C440.951 19.5873 440.951 19.5873 440.951 18.3236C440.951 16.4281 440.951 14.5325 440.951 12.637C440.951 11.5839 440.951 11.5839 442.21 11.5839C444.099 11.5839 445.778 11.5839 447.667 11.5839C448.716 11.5839 448.716 11.5839 448.716 12.637C448.716 14.7432 448.716 17.0599 448.716 19.1661C448.716 20.2192 448.716 20.2192 449.766 20.4298C457.741 22.1147 464.667 25.9058 470.543 31.3819C471.173 31.1712 471.173 31.1712 471.383 31.3819Z"
      fill="#F1E8EC" />
    <path
      d="M550.926 19.3767C554.704 19.3767 558.272 19.3767 561.63 19.3767C566.667 19.3767 571.704 19.3767 576.531 19.3767C577.58 19.3767 578 19.5873 578.42 20.4298C582.198 28.4332 585.975 36.226 589.753 44.2294C589.963 44.6507 589.963 45.0719 590.593 45.4931C591.012 45.0719 591.222 44.6507 591.432 44.2294C595.21 36.4366 598.778 28.6438 602.556 20.6404C602.975 19.7979 603.605 19.3767 604.445 19.3767C612.63 19.3767 620.605 19.3767 628.79 19.3767C629.21 19.3767 629.63 19.3767 630.049 19.3767C630.049 20.0086 629.84 20.6404 629.42 21.0616C622.914 34.1199 616.408 46.9675 609.901 60.0257C607.593 64.4486 605.494 69.0822 603.185 73.5051C602.766 74.3476 602.556 74.9794 602.556 75.8219C602.556 84.4572 602.556 93.0925 602.556 101.728C602.556 101.938 602.556 102.36 602.556 102.57C602.556 103.834 602.556 103.834 601.296 103.834C593.951 103.834 586.815 103.834 579.469 103.834C578.21 103.834 578.21 103.834 578.21 102.57C578.21 93.7243 578.21 84.8784 578.21 76.0325C578.21 75.1901 578 74.3476 577.58 73.5051C568.975 56.024 560.37 38.7534 551.556 21.2723C551.556 20.4298 551.346 20.0086 550.926 19.3767Z"
      fill="#F1E8EC" />
    <path
      d="M754.507 19.3767C765.84 19.3767 776.963 19.3767 788.297 19.3767C788.507 19.3767 788.926 19.3767 789.136 19.3767C790.186 19.3767 790.186 19.3767 790.186 20.6404C790.186 20.851 790.186 20.851 790.186 21.0616C790.186 26.7483 790.186 32.2243 790.186 37.911C790.186 39.8065 788.716 41.2808 786.828 41.2808C780.531 41.2808 774.445 41.2808 768.149 41.2808C767.939 41.2808 767.519 41.2808 767.099 41.2808C766.469 41.2808 766.26 41.4914 766.26 42.1233C766.26 42.5445 766.26 42.9657 766.26 43.1764C766.26 62.7637 766.26 82.351 766.26 101.938C766.26 103.834 766.679 103.834 764.371 103.834C757.655 103.834 750.729 103.834 744.013 103.834C743.803 103.834 743.593 103.834 743.383 103.834C742.334 103.834 742.334 103.834 742.334 102.781C742.334 102.57 742.334 102.149 742.334 101.728C742.334 82.1404 742.334 62.5531 742.334 43.1764C742.334 41.0702 742.544 41.2808 740.445 41.2808C734.148 41.2808 728.062 41.2808 721.766 41.2808C719.877 41.2808 718.408 39.8065 718.408 38.1216C718.408 32.4349 718.408 26.7483 718.408 20.851C718.408 20.6404 718.408 20.4298 718.408 20.2192C718.408 19.5873 718.618 19.3767 719.247 19.3767C719.667 19.3767 720.087 19.3767 720.297 19.3767C732.05 19.3767 743.173 19.3767 754.507 19.3767Z"
      fill="#F1E8EC" />
  </g>
  <defs>
    <clipPath id="clip0">
      <rect width="918" height="123" fill="white" />
    </clipPath>
  </defs>
</svg>
