<?xml version="1.0" encoding="utf-8"?>
<!-- Generator: Adobe Illustrator 19.2.1, SVG Export Plug-In . SVG Version: 6.00 Build 0)  -->
<svg version="1.1" id="layer" xmlns="http://www.w3.org/2000/svg" xmlns:xlink="http://www.w3.org/1999/xlink" x="0px" y="0px"
	 viewBox="0 0 652 652" style="enable-background:new 0 0 652 652;" xml:space="preserve">
<style type="text/css">
	.st0{fill:url(#SVGID_1_);}
</style>
<linearGradient id="SVGID_1_" gradientUnits="userSpaceOnUse" x1="16.0573" y1="633.5" x2="623.2592" y2="633.5" gradientTransform="matrix(1 0 0 1 0 -313)">
	<stop  offset="0" style="stop-color:#F7102B"/>
	<stop  offset="1" style="stop-color:#B7081C"/>
	<stop  offset="1" style="stop-color:#B7081C;stop-opacity:5.200000e-002"/>
	<stop  offset="1" style="stop-color:#000000;stop-opacity:0"/>
</linearGradient>
<path class="st0" d="M53.3,292.5c-4.3,0-7.7,1.8-10,5.3c-2.4,3.5-3.6,8.4-3.6,14.6c0,12.9,4.9,19.4,14.7,19.4c3,0,5.8-0.5,8.7-1.2
	c2.7-0.8,5.6-1.8,8.4-3V343c-5.6,2.4-12,3.6-19,3.6c-10.2,0-17.9-2.9-23.2-8.8S21,323.4,21,312.3c0-7,1.4-13.1,4-18.4
	s6.4-9.3,11.2-12.2s10.8-4.3,17.3-4.3c7.3,0,14.1,1.5,20.8,4.7l-5.6,14.3c-2.4-1.2-5-2.1-7.4-2.9C58.7,292.8,56,292.5,53.3,292.5z
	 M133,319.6c0,8.5-2.3,15.2-6.8,19.9c-4.6,4.7-10.9,7.1-19.1,7.1c-7.9,0-14.1-2.4-18.8-7.3c-4.7-4.9-7-11.4-7-19.8
	c0-8.5,2.3-15,6.8-19.8c4.6-4.7,11.1-7.1,19.3-7.1c5.2,0,9.6,1.1,13.5,3.2c4,2.1,7,5.3,9.1,9.4C132,309.4,133,314.1,133,319.6z
	 M99.3,319.6c0,4.4,0.6,7.9,1.8,10.2c1.2,2.3,3.2,3.5,6.1,3.5c2.7,0,4.7-1.2,5.9-3.5c1.2-2.4,1.7-5.8,1.7-10.2c0-4.4-0.6-7.7-1.7-10
	c-1.2-2.3-3.2-3.3-5.9-3.3c-2.7,0-4.7,1.1-5.9,3.3C99.9,311.7,99.3,315,99.3,319.6z M161.3,345.7h-17.9v-52h17.9V345.7z
	 M142.9,280.7c0-2.7,0.8-4.7,2.3-6.1c1.5-1.4,4-2,7.3-2c3.3,0,5.8,0.6,7.3,2c1.5,1.4,2.3,3.3,2.3,5.9c0,5.3-3.2,7.9-9.6,7.9
	C146.1,288.6,142.9,286,142.9,280.7z M206.7,345.7v-28.4c0-3.5-0.5-6.1-1.5-7.7c-0.9-1.8-2.6-2.7-4.7-2.7c-3,0-5.2,1.2-6.5,3.6
	c-1.4,2.4-2,6.5-2,12.5v22.8h-17.9v-52h13.5l2.3,6.4h1.1c1.5-2.4,3.6-4.3,6.4-5.5c2.7-1.2,5.8-1.8,9.4-1.8c5.8,0,10.2,1.7,13.4,5
	c3.2,3.3,4.9,8.1,4.9,14.1v33.9h-18.2L206.7,345.7z M277.1,329.8c0,5.6-1.8,9.7-5.6,12.6s-9.3,4.3-16.4,4.3c-3.8,0-7.1-0.2-10-0.6
	c-2.9-0.5-5.8-1.2-8.7-2.3v-14.4c2.7,1.2,5.8,2.3,9.1,3c3.3,0.8,6.2,1.2,9,1.2c4,0,5.8-0.9,5.8-2.7c0-0.9-0.6-1.7-1.7-2.4
	s-4.3-2.1-9.4-4.3c-4.7-2-8.1-4.1-10-6.7c-1.8-2.6-2.9-5.6-2.9-9.6c0-4.9,1.8-8.7,5.6-11.2c3.8-2.7,9-4.1,15.8-4.1
	c3.5,0,6.7,0.5,9.6,1.2c3,0.8,6.2,1.8,9.4,3.2l-4.9,11.5c-2.4-1.1-4.9-2-7.6-2.7c-2.7-0.8-4.9-1.2-6.5-1.2c-2.9,0-4.4,0.8-4.4,2.1
	c0,0.9,0.5,1.7,1.5,2.3s4,1.8,9,3.8c3.6,1.5,6.4,3,8.1,4.4c1.8,1.4,3.2,3.2,4,5.2C276.6,324.6,277.1,326.9,277.1,329.8L277.1,329.8z
	 M318.2,346.6c-2.6,0-5-0.5-7.1-1.2c-2.1-0.9-4.1-2.4-6.2-4.7h-0.8c0.6,3.6,0.8,5.9,0.8,6.8v20.8h-17.9v-74.6h14.6l2.6,6.7h0.8
	c3.3-5,7.9-7.6,13.8-7.6c5.8,0,10.3,2.4,13.5,7.1c3.3,4.7,4.9,11.4,4.9,19.6c0,8.4-1.7,15-5.2,19.9
	C328.6,344.2,324,346.6,318.2,346.6L318.2,346.6z M312.2,306.8c-2.6,0-4.6,0.9-5.6,2.9c-1.1,1.8-1.7,4.7-1.7,8.4v1.4
	c0,4.4,0.6,7.7,1.8,9.7c1.2,2,3,3,5.6,3c2.3,0,4-0.9,5-2.9c1.1-2,1.5-5.3,1.5-9.9c0-4.4-0.5-7.6-1.5-9.6S314.6,306.8,312.2,306.8z
	 M372.6,346.6c-8.7,0-15.3-2.3-20.2-6.8c-4.7-4.6-7.1-11.2-7.1-19.8c0-8.8,2.3-15.5,6.7-20.2c4.4-4.7,10.8-7.1,19-7.1
	c7.9,0,13.8,2,18.1,6.1c4.3,4.1,6.4,9.9,6.4,17.6v8.1h-32.1c0.2,2.9,1.2,5.2,3.2,6.8c2,1.7,4.7,2.4,8.2,2.4c3.2,0,6.1-0.3,8.7-0.9
	c2.7-0.6,5.5-1.7,8.7-3v12.9c-2.9,1.4-5.8,2.4-8.7,3C380.4,346.3,376.7,346.6,372.6,346.6L372.6,346.6z M371.6,305
	c-2.1,0-4,0.6-5.3,2c-1.4,1.4-2.3,3.3-2.4,6.2h15.5c0-2.6-0.8-4.6-2.1-6.1C375.7,305.8,373.8,305,371.6,305z M439.5,345.7l-3.5-6.8
	h-0.3c-2.4,3-4.9,5-7.4,6.1c-2.6,1.1-5.8,1.7-9.7,1.7c-4.9,0-8.8-1.5-11.5-4.4c-2.9-2.9-4.3-7.1-4.3-12.5c0-5.5,2-9.7,5.8-12.3
	c3.8-2.7,9.4-4.3,16.7-4.6l8.7-0.3v-0.8c0-4.3-2.1-6.4-6.4-6.4c-3.8,0-8.7,1.2-14.4,3.8l-5.2-11.9c6.1-3.2,13.7-4.7,22.9-4.7
	c6.7,0,11.9,1.7,15.5,5c3.6,3.3,5.5,7.9,5.5,13.8v34h-12.3L439.5,345.7z M426.3,333.9c2.1,0,4-0.8,5.6-2.1c1.5-1.4,2.3-3.2,2.3-5.3
	v-4.1l-4.1,0.2c-5.9,0.2-8.8,2.4-8.8,6.5C421.1,332.4,422.8,333.9,426.3,333.9z M481.6,316.4c2.1-3.5,4-6.1,5.6-8.1l11.7-14.7h20.1
	l-18.1,22.2l19.1,29.9h-20.5L488.1,327l-5.8,4.4v14.1h-18.1v-71.4h18.1v28.1c0,4.9-0.3,9.6-1.1,14.1H481.6L481.6,316.4z
	 M551.3,346.6c-8.7,0-15.3-2.3-20.2-6.8c-4.7-4.6-7.1-11.2-7.1-19.8c0-8.8,2.3-15.5,6.7-20.2c4.4-4.7,10.8-7.1,19-7.1
	c7.9,0,13.8,2,18.1,6.1s6.4,9.9,6.4,17.6v8.1H542c0.2,2.9,1.2,5.2,3.2,6.8c2,1.7,4.7,2.4,8.2,2.4c3.2,0,6.1-0.3,8.7-0.9
	c2.7-0.6,5.5-1.7,8.7-3v12.9c-2.9,1.4-5.8,2.4-8.7,3C559.1,346.3,555.4,346.6,551.3,346.6L551.3,346.6z M550.2,305
	c-2.1,0-4,0.6-5.3,2c-1.4,1.4-2.3,3.3-2.4,6.2H558c0-2.6-0.8-4.6-2.1-6.1C554.3,305.8,552.5,305,550.2,305z M615.6,292.7
	c1.5,0,3,0.2,4.4,0.3l1.1,0.2l-1.7,16.9c-1.5-0.3-3.5-0.6-6.1-0.6c-4,0-6.8,0.9-8.5,2.7c-1.8,1.8-2.7,4.4-2.7,7.7v25.5h-17.9v-52
	h13.4l2.7,8.4h0.9c1.5-2.7,3.6-5,6.2-6.7C610.3,293.6,613,292.7,615.6,292.7z"/>
</svg>
