<svg width="1200" height="1200" viewBox="0 0 1200 1200" fill="none" xmlns="http://www.w3.org/2000/svg">
<rect width="1200" height="1200" rx="600" fill="url(#paint0_linear_2622_26326)"/>
<path d="M630.372 927.815C492.373 927.815 374.869 843.103 327.048 722.866H746.509L779.301 640.887H305.186C303.82 627.224 302.454 613.56 302.454 599.897C302.454 586.234 303.82 572.571 305.186 558.908H813.459L846.251 476.928H327.048C376.235 356.692 493.739 271.979 630.372 271.979C731.48 271.979 821.657 317.068 881.775 389.483L915.933 306.138C840.786 233.722 741.044 190 630.372 190C447.284 190 291.523 310.237 239.603 476.928H150.792L118 558.908H223.207C221.841 572.571 220.474 586.234 220.474 599.897C220.474 613.56 221.841 627.224 223.207 640.887H150.792L118 722.866H239.603C291.523 889.558 447.284 1009.79 630.372 1009.79C724.648 1009.79 812.093 977.003 881.775 923.716V810.311C821.657 882.726 731.48 927.815 630.372 927.815Z" fill="white"/>
<defs>
<linearGradient id="paint0_linear_2622_26326" x1="834.56" y1="1172.8" x2="277.053" y2="32.2934" gradientUnits="userSpaceOnUse">
<stop stop-color="#A146FF"/>
<stop offset="1" stop-color="#67DBFF"/>
</linearGradient>
</defs>
</svg>
